<svg version="1.1" id="Layer_1" xmlns="http://www.w3.org/2000/svg" xmlns:xlink="http://www.w3.org/1999/xlink" x="0px" y="0px"
	 width="100%" viewBox="0 0 1024 1024" enable-background="new 0 0 1024 1024" xml:space="preserve">
<path fill="#000000" opacity="1.000000" stroke="none" 
	d="
M613.349731,900.883728 
	C578.796265,892.081421 547.086060,877.654785 516.725525,859.982422 
	C493.380829,846.394043 471.383362,830.771057 449.042450,815.660767 
	C423.236481,798.206726 398.596191,779.158203 373.519043,760.704468 
	C363.738892,753.507507 353.328522,747.171936 343.443939,740.109863 
	C338.710236,736.727844 334.715668,736.580933 329.975189,740.023865 
	C314.963898,750.926025 298.558411,759.510315 281.954742,767.628174 
	C261.787903,777.488098 241.550201,787.457703 218.803345,790.013916 
	C199.443970,792.189392 180.131180,792.149902 161.870651,784.210510 
	C145.508148,777.096375 133.528473,765.526489 129.461945,747.512512 
	C126.650848,735.059692 129.756058,723.643188 136.314117,712.720825 
	C153.019150,684.899048 179.142654,671.464233 209.247650,663.658691 
	C221.886932,660.381592 234.820526,659.135315 247.702194,658.922791 
	C258.912018,658.737854 270.183746,660.133484 281.364563,661.994385 
	C301.224121,665.299683 319.850769,672.270874 338.212799,680.084106 
	C342.275208,681.812744 344.675659,681.420105 347.529449,677.956055 
	C376.751678,642.484680 399.112915,602.834961 419.194824,561.719788 
	C433.312256,532.816223 445.946503,503.285919 457.553467,473.316833 
	C463.319275,458.429596 468.280579,443.230347 473.559326,428.155945 
	C473.866455,427.278992 474.453033,426.320770 473.687042,424.996185 
	C458.857819,423.890472 443.871246,422.540894 429.082825,419.368744 
	C402.153351,413.592255 376.983246,403.826813 355.939026,385.700439 
	C325.587799,359.557648 308.324127,326.342133 304.600189,286.287415 
	C303.178314,270.993378 303.031769,255.795380 306.989716,240.759888 
	C316.560486,204.402328 338.235535,178.039337 371.265656,160.128372 
	C399.496002,144.820145 429.568359,140.144135 461.010345,141.827194 
	C471.593567,142.393692 482.130035,144.088058 492.411011,146.902344 
	C494.431824,147.455521 496.355103,148.365036 499.457886,149.539749 
	C496.012451,150.719177 493.665436,150.965012 491.295441,150.597382 
	C477.085632,148.393234 462.741913,147.648117 448.453125,148.499054 
	C396.079712,151.618073 356.509552,175.126526 333.132629,223.039993 
	C316.989319,256.127472 319.944122,289.866364 332.022003,323.282654 
	C341.699951,350.059052 360.269531,369.521973 383.342865,385.962982 
	C409.853149,404.852936 440.002136,410.542297 470.983948,414.547180 
	C477.894135,415.440430 478.635132,414.669220 481.001068,407.839386 
	C492.602020,374.350433 503.945526,340.768890 516.976318,307.794861 
	C533.647827,265.608063 552.198486,224.324554 576.624329,185.948212 
	C592.807495,160.522186 612.308777,137.931564 634.755310,117.739105 
	C650.876648,103.236671 668.445190,91.839760 689.668152,86.451424 
	C713.238464,80.467102 736.421570,81.237869 759.235107,89.815575 
	C774.743774,95.646721 784.490723,106.962257 790.434509,122.196419 
	C797.482056,140.259384 797.569824,158.773956 795.160156,177.584717 
	C791.545044,205.805405 782.587891,232.251999 768.959229,257.172791 
	C753.760132,284.965057 733.307922,308.441162 710.120850,329.810211 
	C694.154053,344.525146 677.550720,358.408051 659.268494,370.087372 
	C625.099548,391.915710 588.849243,409.184296 549.093140,418.310486 
	C546.345215,418.941284 544.749817,420.160736 543.757141,422.802795 
	C535.680054,444.300476 527.873657,465.910248 519.275635,487.199463 
	C504.987274,522.578613 489.273224,557.277832 469.537689,590.077515 
	C447.458466,626.772522 421.592316,660.521729 392.550903,691.915588 
	C389.740662,694.953430 387.150574,698.195007 383.965179,701.918518 
	C390.562653,706.024231 396.581238,710.111084 402.906372,713.650024 
	C441.177704,735.063599 477.499359,759.561523 514.072083,783.664917 
	C542.995667,802.727234 571.721313,822.116882 602.362000,838.399231 
	C628.034790,852.041687 654.628235,863.285889 683.453735,868.424255 
	C700.214539,871.411987 717.186707,872.849060 734.110657,871.459045 
	C764.015503,869.003052 791.943115,860.118408 815.746582,841.255493 
	C846.923340,816.549622 866.237427,784.276123 874.639648,745.417786 
	C878.355347,728.233643 880.141724,710.935181 877.634460,693.425964 
	C873.611389,665.332520 864.327209,639.721741 841.278748,621.322266 
	C830.767639,612.931213 818.144897,609.228516 804.926697,607.280518 
	C797.403687,606.171875 790.083984,606.942566 782.711975,608.225830 
	C780.669434,608.581360 778.214600,609.300171 777.206604,606.399109 
	C776.165649,603.403198 778.662231,602.496704 780.519104,601.740723 
	C791.182617,597.399353 802.291443,595.596313 813.732849,597.204041 
	C849.968506,602.296082 870.606934,624.996094 881.619690,658.142151 
	C887.792603,676.720947 890.969421,695.932251 890.229370,715.492371 
	C888.776428,753.893616 878.710205,789.823242 855.535095,820.955383 
	C831.382568,853.400574 800.252625,877.245667 762.953064,893.283691 
	C731.136902,906.963989 697.884277,910.808777 663.820129,909.159912 
	C646.913025,908.341553 630.176636,905.314880 613.349731,900.883728 
M760.818298,231.418427 
	C763.530884,225.162628 766.454590,218.988678 768.918152,212.636307 
	C777.741760,189.884659 782.861694,166.472336 779.593689,141.949936 
	C777.159241,123.683151 768.765320,108.724762 751.164490,101.465134 
	C733.074890,94.003922 715.308472,97.735016 698.398865,106.489876 
	C683.376282,114.267731 672.377380,126.449677 662.305298,139.638046 
	C649.612366,156.258408 639.643250,174.441513 630.660400,193.284149 
	C618.552734,218.681580 606.413635,244.033112 596.506104,270.412872 
	C580.766418,312.321350 567.757629,355.171509 552.477112,397.235931 
	C551.671631,399.453491 550.100525,402.004028 552.231323,404.291351 
	C554.273254,406.483185 556.723572,404.768860 558.791016,404.244720 
	C575.451721,400.020752 591.318970,393.706604 606.968201,386.580994 
	C631.603210,375.363892 654.248962,361.128387 673.791382,342.507904 
	C691.971558,325.185425 709.817017,307.519653 725.437988,287.634705 
	C739.091980,270.253815 751.301819,252.179474 760.818298,231.418427 
M244.577789,693.254150 
	C228.718536,688.641724 212.664017,687.305603 196.355225,690.430603 
	C177.090652,694.122009 160.490646,701.973450 149.122498,719.003784 
	C140.533508,731.870667 140.576202,746.970520 150.057373,759.220032 
	C164.210693,777.505981 184.100357,779.857117 204.614883,777.131958 
	C244.363617,771.851685 276.526001,750.747070 306.264282,725.355713 
	C310.084625,722.093750 309.839478,719.609741 305.452759,717.252869 
	C286.359283,706.994324 266.696167,698.119507 244.577789,693.254150 
z"/>
</svg>